<svg id="Layer_1" data-name="Layer 1" xmlns="http://www.w3.org/2000/svg" viewBox="0 0 168.97 27.94"><defs><style>.cls-1{fill:#041e42;}</style></defs><path class="cls-1" d="M88.68,25H81.6l3.54-9.25Zm33.14,10.48H133V9.82h-9.6V23.33L113.27,9.82H101.1V30.73L93,9.82H77.44L71.58,25H62.06c-.48,3-2.23,4.64-5.3,4.64-3.54,0-5.52-2.74-5.52-7s2-6.94,5.52-6.94c2.89,0,4.75,1.53,5.15,4H72.47V19c0-5.66-4.9-10.33-15.6-10.33-11.54,0-15.93,5.77-15.93,14,0,.19,0,.37,0,.56-1.44-1.76-4.22-2.79-8.81-3.45l-6.68-.95c-2.52-.36-4.09-.65-4.09-1.9,0-1,1-2.19,3.72-2.19,3,0,4.72,1.17,4.72,3.07H40.54v-.55c0-5.11-5.11-8.47-15.16-8.47-10.33,0-14.86,3.76-14.86,9.06,0,4.13,2.7,6.54,9.06,7.41l7.56,1.06c2.7.37,3.58.92,3.58,2.05,0,1.46-1.39,2.26-4.5,2.26-3.5,0-5.11-1.5-5.11-3.58H9.82v.59c0,5.69,5.37,9,15.93,9,9.75,0,15.41-2.15,16.34-7.6,1.95,4.68,6.54,7.64,14.78,7.64,6.25,0,9.76-1.7,11.86-4.27l-1.19,3.1h10L79,31.77H91.28l1.42,3.69h18V20.7ZM164.55,25h-7.09L161,15.73ZM178.8,35.46,168.9,9.82H153.3l-8.07,20.91V9.82H135.4V35.46h18l1.42-3.69h12.27l1.43,3.69Z" transform="translate(-9.82 -8.69)"/></svg>